<svg width="19" height="16" viewBox="0 0 19 16" fill="none" xmlns="http://www.w3.org/2000/svg">
<path d="M6.92828 3.60078H3.82221C2.76433 3.60078 2.235 3.60078 1.83095 3.80424C1.47553 3.9832 1.18678 4.26856 1.00568 4.61979C0.799805 5.01909 0.799805 5.5422 0.799805 6.58763V11.8143C0.799805 12.8597 0.799805 13.3817 1.00568 13.781C1.18678 14.1323 1.47553 14.4186 1.83095 14.5975C2.23461 14.8008 2.7633 14.8008 3.81911 14.8008H14.7805C15.8363 14.8008 16.3642 14.8008 16.7679 14.5975C17.1233 14.4186 17.413 14.1323 17.5941 13.781C17.7998 13.3821 17.7998 12.8604 17.7998 11.817V6.58456C17.7998 5.54118 17.7998 5.0187 17.5941 4.61979C17.413 4.26856 17.1233 3.9832 16.7679 3.80424C16.3638 3.60078 15.8356 3.60078 14.7778 3.60078H11.6711M6.92828 3.60078H6.98665M6.92828 3.60078C6.94012 3.60079 6.95256 3.60078 6.96567 3.60078L6.98665 3.60078M6.92828 3.60078C6.82806 3.60074 6.7719 3.60023 6.72748 3.59531C6.17254 3.53391 5.79193 3.01192 5.90847 2.47223C5.91932 2.42201 5.94076 2.35846 5.9832 2.23262L5.98503 2.2273C6.0335 2.08358 6.05774 2.01172 6.08452 1.94831C6.35867 1.29908 6.97951 0.857554 7.68945 0.805833C7.75879 0.800781 7.83498 0.800781 7.98828 0.800781H10.6112C10.7645 0.800781 10.8414 0.800781 10.9107 0.805833C11.6206 0.857554 12.2408 1.29908 12.515 1.94831C12.5418 2.01172 12.5661 2.0835 12.6146 2.22721C12.6582 2.35664 12.6801 2.42138 12.6911 2.47232C12.8076 3.01201 12.4276 3.53391 11.8727 3.59531C11.8283 3.60023 11.7715 3.60074 11.6711 3.60078M6.98665 3.60078H11.6127M11.6127 3.60078H11.6711M11.6127 3.60078L11.6337 3.60078C11.6468 3.60078 11.6593 3.60079 11.6711 3.60078M9.2998 12.0008C7.735 12.0008 6.46647 10.7472 6.46647 9.20078C6.46647 7.65438 7.735 6.40078 9.2998 6.40078C10.8646 6.40078 12.1331 7.65438 12.1331 9.20078C12.1331 10.7472 10.8646 12.0008 9.2998 12.0008Z" stroke="black" stroke-width="1.6" stroke-linecap="round" stroke-linejoin="round"/>
</svg>
