<svg width="30" height="30" viewBox="0 0 30 30" fill="none" xmlns="http://www.w3.org/2000/svg">
<path fill-rule="evenodd" clip-rule="evenodd" d="M8.75 8.75C7.36929 8.75 6.25 7.63071 6.25 6.25C6.25 4.86929 7.36929 3.75 8.75 3.75C10.1307 3.75 11.25 4.86929 11.25 6.25C11.25 7.63071 10.1307 8.75 8.75 8.75Z" stroke="white" stroke-width="2" stroke-linecap="round" stroke-linejoin="round"/>
<path fill-rule="evenodd" clip-rule="evenodd" d="M8.75 26.25C7.36929 26.25 6.25 25.1307 6.25 23.75C6.25 22.3693 7.36929 21.25 8.75 21.25C10.1307 21.25 11.25 22.3693 11.25 23.75C11.25 25.1307 10.1307 26.25 8.75 26.25Z" stroke="white" stroke-width="2" stroke-linecap="round" stroke-linejoin="round"/>
<path fill-rule="evenodd" clip-rule="evenodd" d="M21.25 17.5C19.8693 17.5 18.75 16.3807 18.75 15C18.75 13.6193 19.8693 12.5 21.25 12.5C22.6307 12.5 23.75 13.6193 23.75 15C23.75 16.3807 22.6307 17.5 21.25 17.5Z" stroke="white" stroke-width="2" stroke-linecap="round" stroke-linejoin="round"/>
<path d="M3.75 6.25H5" stroke="white" stroke-width="2" stroke-linecap="round" stroke-linejoin="round"/>
<path d="M12.4961 6.25H26.2501" stroke="white" stroke-width="2" stroke-linecap="round" stroke-linejoin="round"/>
<path d="M3.75 23.75H5" stroke="white" stroke-width="2" stroke-linecap="round" stroke-linejoin="round"/>
<path d="M12.4961 23.75H26.2501" stroke="white" stroke-width="2" stroke-linecap="round" stroke-linejoin="round"/>
<path d="M26.25 15H25" stroke="white" stroke-width="2" stroke-linecap="round" stroke-linejoin="round"/>
<path d="M17.504 15H3.75" stroke="white" stroke-width="2" stroke-linecap="round" stroke-linejoin="round"/>
</svg>
