<svg width="15" height="16" viewBox="0 0 15 16" fill="none" xmlns="http://www.w3.org/2000/svg">
<path d="M0.799805 3.63411H2.21647M2.21647 3.63411H13.5498M2.21647 3.63411L2.21647 13.5508C2.21647 13.9265 2.36573 14.2868 2.6314 14.5525C2.89708 14.8182 3.25741 14.9674 3.63314 14.9674H10.7165C11.0922 14.9674 11.4525 14.8182 11.7182 14.5525C11.9839 14.2868 12.1331 13.9265 12.1331 13.5508V3.63411M4.34147 3.63411V2.21745C4.34147 1.84172 4.49073 1.48139 4.7564 1.21571C5.02208 0.950037 5.38241 0.800781 5.75814 0.800781H8.59147C8.9672 0.800781 9.32753 0.950037 9.59321 1.21571C9.85888 1.48139 10.0081 1.84172 10.0081 2.21745V3.63411" stroke="black" stroke-width="1.6" stroke-linecap="round" stroke-linejoin="round"/>
</svg>
