<svg width="24" height="24" viewBox="0 0 24 24" fill="none" xmlns="http://www.w3.org/2000/svg">
<path d="M18 1.50586C20.2091 1.50586 22 3.29672 22 5.50586V18.4941C22 20.7033 20.2091 22.4941 18 22.4941H6C3.79086 22.4941 2 20.7033 2 18.4941V5.50586C2 3.29672 3.79086 1.50586 6 1.50586H18ZM6 3.50586C4.89543 3.50586 4 4.40129 4 5.50586V18.4941C4 19.5987 4.89543 20.4941 6 20.4941H18C19.1046 20.4941 20 19.5987 20 18.4941V5.50586C20 4.40129 19.1046 3.50586 18 3.50586H6ZM15 17C15.5523 17 16 17.4477 16 18C16 18.5523 15.5523 19 15 19H12C11.4477 19 11 18.5523 11 18C11 17.4477 11.4477 17 12 17H15ZM7.5 13.5C8.05228 13.5 8.5 13.9477 8.5 14.5V15H9C9.55228 15 10 15.4477 10 16C10 16.5523 9.55228 17 9 17H8.5V17.5C8.5 18.0523 8.05228 18.5 7.5 18.5C6.94772 18.5 6.5 18.0523 6.5 17.5V17H6C5.44772 17 5 16.5523 5 16C5 15.4477 5.44772 15 6 15H6.5V14.5C6.5 13.9477 6.94772 13.5 7.5 13.5ZM18 14C18.5523 14 19 14.4477 19 15C19 15.5523 18.5523 16 18 16H12C11.4477 16 11 15.5523 11 15C11 14.4477 11.4477 14 12 14H18ZM15 9C15.5523 9 16 9.44772 16 10C16 10.5523 15.5523 11 15 11H12C11.4477 11 11 10.5523 11 10C11 9.44772 11.4477 9 12 9H15ZM7.5 5.5C8.05228 5.5 8.5 5.94772 8.5 6.5V7H9C9.55228 7 10 7.44772 10 8C10 8.55228 9.55228 9 9 9H8.5V9.5C8.5 10.0523 8.05228 10.5 7.5 10.5C6.94772 10.5 6.5 10.0523 6.5 9.5V9H6C5.44772 9 5 8.55228 5 8C5 7.44772 5.44772 7 6 7H6.5V6.5C6.5 5.94772 6.94772 5.5 7.5 5.5ZM18 6C18.5523 6 19 6.44772 19 7C19 7.55228 18.5523 8 18 8H12C11.4477 8 11 7.55228 11 7C11 6.44772 11.4477 6 12 6H18Z" fill="white"/>
</svg>
