<svg width="29" height="25" viewBox="0 0 29 25" fill="none" xmlns="http://www.w3.org/2000/svg">
<path d="M13.9884 1.75082C18.621 1.71039 23.1399 3.16737 26.8741 5.90042C26.9875 5.9834 27.0441 6.02489 27.0533 6.08696C27.0625 6.14903 27.0198 6.20567 26.9344 6.31893L14.4113 22.9378C14.3031 23.0812 14.2491 23.153 14.1751 23.1536C14.1012 23.1542 14.0459 23.0835 13.9353 22.9419L1.12395 6.54417C1.03663 6.43241 0.992978 6.37653 1.00106 6.31431C1.00914 6.25208 1.06509 6.20961 1.177 6.12467C4.86288 3.32686 9.35573 1.79125 13.9884 1.75082Z" stroke="white" stroke-width="2" stroke-linecap="round"/>
<path d="M14.0233 5.75067C17.7754 5.71792 21.4359 6.89199 24.4666 9.09537C24.58 9.17784 24.6367 9.21908 24.646 9.28127C24.6553 9.34347 24.6126 9.40014 24.5272 9.51347L14.4113 22.9378C14.3031 23.0812 14.2491 23.153 14.1751 23.1536C14.1012 23.1542 14.0459 23.0835 13.9353 22.9419L3.58659 9.69621C3.49922 9.58438 3.45554 9.52847 3.46374 9.46612C3.47194 9.40377 3.52793 9.36155 3.63991 9.27711C6.63166 7.02118 10.2711 5.78341 14.0233 5.75067Z" stroke="white" stroke-width="2" stroke-linecap="round"/>
<mask id="mask0_2383_11718" style="mask-type:alpha" maskUnits="userSpaceOnUse" x="1" y="1" width="27" height="23">
<path d="M27.3349 6.11927C27.4202 6.00601 27.4629 5.94938 27.4538 5.88731C27.4446 5.82525 27.3879 5.78375 27.2745 5.70074C23.4971 2.93504 18.9253 1.4604 14.2384 1.50081C9.55157 1.54122 5.00593 3.09447 1.2767 5.92489C1.16478 6.00984 1.10882 6.05231 1.10073 6.11453C1.09264 6.17674 1.13628 6.23263 1.22357 6.3444L14.1853 22.9418C14.2959 23.0834 14.3512 23.1542 14.4251 23.1536C14.4991 23.1529 14.5532 23.0812 14.6613 22.9377L27.3349 6.11927Z" fill="#33363F"/>
</mask>
<g mask="url(#mask0_2383_11718)">
<path d="M10.3478 13.7344C11.8494 13.7344 13.0666 14.9516 13.0666 16.4531C13.0666 17.9546 11.8494 19.1719 10.3478 19.1719C8.84632 19.1719 7.62909 17.9546 7.62909 16.4531C7.62909 14.9516 8.84632 13.7344 10.3478 13.7344ZM19.8635 11.0156C21.365 11.0156 22.5822 12.2329 22.5822 13.7344C22.5822 15.2359 21.365 16.4531 19.8635 16.4531C18.3619 16.4531 17.1447 15.2359 17.1447 13.7344C17.1447 12.2329 18.3619 11.0156 19.8635 11.0156ZM13.0666 8.29688C13.8174 8.29688 14.426 8.90549 14.426 9.65625C14.426 10.407 13.8174 11.0156 13.0666 11.0156C12.3158 11.0156 11.7072 10.407 11.7072 9.65625C11.7072 8.90549 12.3158 8.29688 13.0666 8.29688Z" fill="white"/>
</g>
</svg>
