<svg width="24" height="24" viewBox="0 0 24 24" fill="none" xmlns="http://www.w3.org/2000/svg">
<path d="M3 7C3 4.79086 4.79086 3 7 3H12H14.3574C15.153 3 15.9161 3.31607 16.4787 3.87868L20.1213 7.52132C20.6839 8.08393 21 8.84699 21 9.64264V12V17C21 19.2091 19.2091 21 17 21H7C4.79086 21 3 19.2091 3 17V7Z" stroke="black" stroke-width="2"/>
<path d="M6.59961 14.9004C6.59961 13.7958 7.49504 12.9004 8.59961 12.9004H15.3996C16.5042 12.9004 17.3996 13.7958 17.3996 14.9004V21.0004H6.59961V14.9004Z" stroke="black" stroke-width="2"/>
<path d="M8.40039 3V6.5C8.40039 7.05228 8.84811 7.5 9.40039 7.5H14.6004C15.1527 7.5 15.6004 7.05228 15.6004 6.5V3" stroke="black" stroke-width="2"/>
</svg>
