<svg width="16" height="16" viewBox="0 0 16 16" fill="none" xmlns="http://www.w3.org/2000/svg">
<path d="M11.6887 14.8008L3.91092 14.8006M11.6887 14.8008L12.3133 14.8006C13.1828 14.8006 13.6176 14.8006 13.95 14.6313C14.2427 14.4821 14.4813 14.244 14.6304 13.9513C14.7998 13.6189 14.7998 13.1837 14.7998 12.3142V5.63815C14.7998 5.28907 14.7998 5.11367 14.7626 4.94711C14.7294 4.79851 14.6748 4.65581 14.6001 4.52315C14.5172 4.37598 14.4008 4.24673 14.1721 3.99258L12.0291 1.61154C11.7641 1.31702 11.6297 1.16774 11.4684 1.06054C11.3233 0.964115 11.1631 0.893013 10.9944 0.849677C10.804 0.800781 10.5997 0.800781 10.1915 0.800781H3.28885C2.41765 0.800781 1.98173 0.800781 1.64898 0.970325C1.35628 1.11946 1.11849 1.35725 0.96935 1.64995C0.799805 1.9827 0.799805 2.41861 0.799805 3.2898V12.3119C0.799805 13.1831 0.799805 13.6181 0.96935 13.9508C1.11849 14.2435 1.35628 14.4821 1.64898 14.6313C1.98141 14.8006 2.4168 14.8006 3.28629 14.8006H3.91092M11.6887 14.8008V11.8427C11.6887 10.9732 11.6887 10.5378 11.5193 10.2054C11.3702 9.91272 11.1316 9.67492 10.8389 9.52579C10.5061 9.35624 10.0711 9.35624 9.19996 9.35624H6.39996C5.52876 9.35624 5.09284 9.35624 4.76009 9.52579C4.46739 9.67492 4.2296 9.91272 4.08046 10.2054C3.91092 10.5382 3.91092 10.9741 3.91092 11.8453V14.8006M10.1331 3.91186H5.46647" stroke="black" stroke-width="1.6" stroke-linecap="round" stroke-linejoin="round"/>
</svg>
