<svg width="17" height="20" viewBox="0 0 17 20" fill="none" xmlns="http://www.w3.org/2000/svg">
<path d="M1.93671 6.41626C1.13874 5.35231 1.8979 3.83398 3.22785 3.83398H13.7722C15.1021 3.83398 15.8613 5.35231 15.0633 6.41626C14.4813 7.19227 14.1667 8.13612 14.1667 9.10614V14.9451C14.1667 17.1542 12.3758 18.9451 10.1667 18.9451H6.83333C4.62419 18.9451 2.83333 17.1542 2.83333 14.9451V9.10614C2.83333 8.13612 2.51872 7.19227 1.93671 6.41626Z" stroke="white" stroke-width="2"/>
<path d="M10.3887 14.2214L10.3887 8.55469" stroke="white" stroke-width="2" stroke-linecap="round" stroke-linejoin="round"/>
<path d="M6.61133 14.2214L6.61133 8.55469" stroke="white" stroke-width="2" stroke-linecap="round" stroke-linejoin="round"/>
<path d="M12.2782 3.83333L11.7896 2.36754C11.5174 1.55086 10.7531 1 9.89225 1H7.10862C6.24776 1 5.48348 1.55086 5.21125 2.36754L4.72266 3.83333" stroke="white" stroke-width="2" stroke-linecap="round"/>
</svg>
