<svg width="17" height="20" viewBox="0 0 17 20" fill="none" xmlns="http://www.w3.org/2000/svg">
<path d="M1.93671 6.16626C1.13874 5.10231 1.8979 3.58398 3.22785 3.58398H13.7722C15.1021 3.58398 15.8613 5.10231 15.0633 6.16626C14.4813 6.94227 14.1667 7.88612 14.1667 8.85614V14.6951C14.1667 16.9042 12.3758 18.6951 10.1667 18.6951H6.83333C4.62419 18.6951 2.83333 16.9042 2.83333 14.6951V8.85614C2.83333 7.88612 2.51872 6.94227 1.93671 6.16626Z" stroke="black" stroke-width="1.5"/>
<path d="M10.3887 13.9714L10.3887 8.30469" stroke="black" stroke-width="1.5" stroke-linecap="round" stroke-linejoin="round"/>
<path d="M6.61133 13.9714L6.61133 8.30469" stroke="black" stroke-width="1.5" stroke-linecap="round" stroke-linejoin="round"/>
<path d="M12.2782 3.58333L11.7896 2.11754C11.5174 1.30086 10.7531 0.75 9.89225 0.75H7.10862C6.24776 0.75 5.48348 1.30086 5.21125 2.11754L4.72266 3.58333" stroke="black" stroke-width="1.5" stroke-linecap="round"/>
</svg>
